#!OML:ASF H:\Terrain\Patient Classification 1\Walking\liu\liu.ASF
:FULLY-SPECIFIED
:DEGREES
190
root 9.19935 16.7909 4.64757 9.17615 -2.9663 1.71951
lowerback -3.33757 0.636852 -3.16384
upperback -0.0435024 0.934713 1.99166
thorax 1.74337 0.433016 3.87378
lowerneck -21.6419 -4.44184 -12.8291
upperneck 17.0009 -4.55767 11.4325
head 9.50139 -1.7091 5.48323
rclavicle 1.98785e-015 -1.66979e-014
rhumerus -28.0039 24.3174 -88.9686
rradius 34.6993
rwrist -17.9018
rhand -30.3778 -25.5532
rfingers 7.12502
rthumb -3.68226 -55.5012
lclavicle 1.98785e-015 -1.66979e-014
lhumerus -38.1172 2.56958 85.6737
lradius 20.5412
lwrist 0.414502
lhand -16.9331 -27.8399
lfingers 7.12502
lthumb 9.29985 1.93495
rfemur -29.5033 -3.38386 19.9621
rtibia 71.621
rfoot -11.9938 -8.66343
rtoes -15.8393
lfemur -23.3367 0.892481 -27.237
ltibia 34.706
lfoot -18.69 2.40348
ltoes 0.491709
191
root 9.19924 16.8079 4.87383 9.16818 -2.41567 1.58434
lowerback -3.34894 0.252185 -2.93419
upperback -0.125401 0.411967 2.02891
thorax 1.71389 0.175174 3.75792
lowerneck -21.4764 -4.17746 -12.465
upperneck 17.1977 -4.28547 11.182
head 9.48757 -1.59112 5.37598
rclavicle -8.64713e-015 -1.35174e-014
rhumerus -29.5144 23.9978 -89.3907
rradius 34.1113
rwrist -17.7343
rhand -31.2096 -25.346
rfingers 7.12502
rthumb -4.48554 -55.2785
lclavicle -8.64713e-015 -1.35174e-014
lhumerus -37.0429 -0.0928005 87.3861
lradius 21.9772
lwrist 2.07732
lhand -14.1826 -26.5611
lfingers 7.12502
lthumb 11.953 3.07767
rfemur -30.9409 -3.21151 20.4772
rtibia 70.3098
rfoot -13.3128 -8.64782
rtoes -13.8944
lfemur -22.0305 0.495423 -27.0659
ltibia 33.8961
lfoot -19.1864 2.39748
ltoes 1.40623
192
root 9.20692 16.8232 5.10556 9.01843 -1.93832 1.53376
lowerback -3.25025 -0.0884295 -2.63647
upperback -0.18261 -0.0550349 1.98296
thorax 1.63975 -0.0537334 3.51933
lowerneck -20.9131 -3.94967 -12.1349
upperneck 17.0297 -4.07642 10.9435
head 9.28731 -1.51154 5.25672
rclavicle -4.67144e-015 7.95139e-016
rhumerus -31.0157 23.2914 -89.6751
rradius 33.5926
rwrist -17.5953
rhand -33.659 -23.8499
rfingers 7.12502
rthumb -6.85036 -53.719
lclavicle -4.67144e-015 7.95139e-016
lhumerus -36.0984 -3.11506 88.955
lradius 23.5998
lwrist 4.27432
lhand -13.1922 -25.2532
lfingers 7.12502
lthumb 12.9079 4.32758
rfemur -32.1609 -3.01767 20.7573
rtibia 68.8329
rfoot -14.3694 -8.3148
rtoes -16.9833
lfemur -20.5784 0.00366021 -26.9961
ltibia 33.1567
lfoot -19.8368 2.51892
ltoes 1.84812
193
root 9.21583 16.8286 5.32695 8.92722 -1.28654 1.92349
lowerback -3.07094 -0.49411 -2.85763
upperback -0.22567 -0.591128 1.91614
thorax 1.53971 -0.320807 3.55102
lowerneck -20.8229 -3.84221 -12.0647
upperneck 17.0934 -3.93997 10.8348
head 9.27124 -1.45776 5.22665
rclavicle -6.75868e-015 7.15625e-015
rhumerus -32.3651 22.3173 -89.5074
rradius 33.3226
rwrist -16.9275
rhand -33.7332 -23.9519
rfingers 7.12502
rthumb -6.92206 -53.8187
lclavicle -6.75868e-015 7.15625e-015
lhumerus -34.9293 -6.09127 90.322
lradius 25.1374
lwrist 6.37024
lhand -15.5315 -25.9607
lfingers 7.12502
lthumb 10.6521 3.7493
rfemur -33.5051 -3.25725 20.5061
rtibia 67.2828
rfoot -14.2632 -8.13101
rtoes -24.0095
lfemur -19.1468 -0.507321 -27.4406
ltibia 32.3937
lfoot -20.3209 2.51504
ltoes 1.79606
194
root 9.21785 16.8281 5.55152 8.85713 -0.924376 1.97304
lowerback -3.0035 -0.763928 -2.90869
upperback -0.182337 -0.951627 1.95246
thorax 1.57788 -0.503019 3.60149
lowerneck -20.9661 -3.77927 -11.9823
upperneck 17.2767 -3.84883 10.7228
head 9.34402 -1.41934 5.19114
rclavicle -9.93923e-015 1.59028e-015
rhumerus -33.6331 21.7815 -89.3578
rradius 33.0017
rwrist -16.4019
rhand -31.4448 -25.5343
rfingers 7.12502
rthumb -4.71261 -55.4619
lclavicle -9.93923e-015 1.59028e-015
lhumerus -33.6407 -8.87608 91.3833
lradius 26.4828
lwrist 8.31722
lhand -17.5694 -27.2593
lfingers 7.12502
lthumb 8.68592 2.54202
rfemur -34.7589 -2.93295 20.634
rtibia 65.5159
rfoot -15.155 -8.2347
rtoes -20.6217
lfemur -17.7679 -0.849645 -27.467
ltibia 31.5898
lfoot -20.688 2.34771
ltoes 3.66976
195
root 9.21487 16.8288 5.78322 8.67243 -0.506847 2.02144
lowerback -2.84136 -1.00183 -3.01848
upperback -0.110847 -1.27035 2.01469
thorax 1.59128 -0.664944 3.71514
lowerneck -20.834 -3.71575 -12.2125
upperneck 17.1848 -3.75934 10.9972
head 9.28779 -1.36637 5.3396
rclavicle 9.14409e-015 0
rhumerus -34.9638 21.6384 -89.2993
rradius 32.5479
rwrist -16.6565
rhand -30.4087 -25.7216
rfingers 7.12502
rthumb -3.71217 -55.6691
lclavicle 9.14409e-015 0
lhumerus -32.3901 -11.4855 92.2834
lradius 27.6668
lwrist 9.14478
lhand -17.0913 -26.8151
lfingers 7.12502
lthumb 9.14728 2.9665
rfemur -35.6962 -2.67821 20.7301
rtibia 63.5077
rfoot -15.8632 -8.44954
rtoes -17.5083
lfemur -16.1042 -1.19103 -27.4907
ltibia 30.5367
lfoot -20.9842 2.15515
ltoes 6.0744
196
root 9.21588 16.8406 6.01698 8.55639 0.0477392 2.0737
lowerback -2.70423 -1.29222 -3.06374
upperback -0.0807514 -1.66095 2.08435
thorax 1.58287 -0.86139 3.79745
lowerneck -20.6386 -3.56208 -12.5719
upperneck 17.0516 -3.55591 11.4814
head 9.19706 -1.24793 5.6009
rclavicle -6.75868e-015 -4.77083e-015
rhumerus -36.2557 21.171 -88.9953
rradius 32.329
rwrist -17.1016
rhand -34.7392 -21.8345
rfingers 7.12502
rthumb -7.89305 -51.6671
lclavicle -6.75868e-015 -4.77083e-015
lhumerus -31.0254 -13.5622 92.7762
lradius 28.7371
lwrist 8.51458
lhand -17.2982 -26.8665
lfingers 7.12502
lthumb 8.94763 2.92378
rfemur -36.6029 -2.59469 20.7834
rtibia 61.2133
rfoot -16.4423 -8.51939
rtoes -17.9616
lfemur -14.3973 -1.60776 -27.5306
ltibia 29.2803
lfoot -21.2127 2.13085
ltoes 6.40374
